<svg width="65" height="65" viewBox="0 0 65 65" fill="none" xmlns="http://www.w3.org/2000/svg">
<rect x="1.5" y="1.5" width="62" height="62" rx="31" stroke="white" stroke-opacity="0.5" stroke-width="3"/>
<rect x="31" y="31" width="4" height="4" rx="2" fill="white" fill-opacity="0.8"/>
<path d="M30.2654 13.5455V7H31.4607L34.3084 11.1197H34.3563V7H35.7402V13.5455H34.5257L31.7004 9.42898H31.6429V13.5455H30.2654Z" fill="white" fill-opacity="0.8"/>
<path d="M53.8135 29V35.5455H58.224V34.4045H55.1974V32.8448H57.9971V31.7038H55.1974V30.141H58.2368V29H53.8135Z" fill="white" fill-opacity="0.8"/>
<path d="M8.37966 37L6.50679 30.4545H8.01851L9.10196 35.0025H9.15629L10.3516 30.4545H11.646L12.8381 35.0121H12.8956L13.9791 30.4545H15.4908L13.6179 37H12.2692L11.0228 32.7205H10.9716L9.72838 37H8.37966Z" fill="white" fill-opacity="0.8"/>
<path d="M34.1709 54.337C34.1454 54.0792 34.0356 53.8789 33.8418 53.7362C33.6479 53.5934 33.3847 53.522 33.0523 53.522C32.8265 53.522 32.6358 53.554 32.4802 53.6179C32.3247 53.6797 32.2054 53.766 32.1223 53.8768C32.0413 53.9876 32.0008 54.1133 32.0008 54.2539C31.9966 54.3711 32.0211 54.4734 32.0744 54.5607C32.1297 54.6481 32.2054 54.7237 32.3013 54.7876C32.3972 54.8494 32.5079 54.9038 32.6337 54.9506C32.7594 54.9954 32.8936 55.0337 33.0364 55.0657L33.6244 55.2063C33.9099 55.2702 34.172 55.3555 34.4106 55.462C34.6493 55.5685 34.856 55.6996 35.0307 55.8551C35.2054 56.0107 35.3407 56.1939 35.4366 56.4048C35.5346 56.6158 35.5847 56.8576 35.5868 57.1303C35.5847 57.5309 35.4824 57.8782 35.28 58.1722C35.0797 58.4641 34.7899 58.6911 34.4106 58.853C34.0335 59.0128 33.5786 59.0927 33.0459 59.0927C32.5175 59.0927 32.0573 59.0117 31.6653 58.8498C31.2753 58.6879 30.9707 58.4482 30.7512 58.1307C30.5339 57.8111 30.4199 57.4158 30.4092 56.945H31.7484C31.7633 57.1644 31.8261 57.3477 31.9369 57.4947C32.0498 57.6396 32.2001 57.7493 32.3876 57.8239C32.5772 57.8963 32.7913 57.9325 33.03 57.9325C33.2643 57.9325 33.4678 57.8984 33.6404 57.8303C33.8151 57.7621 33.9504 57.6673 34.0463 57.5458C34.1422 57.4244 34.1901 57.2848 34.1901 57.1271C34.1901 56.9801 34.1464 56.8565 34.0591 56.7564C33.9739 56.6562 33.8481 56.571 33.682 56.5007C33.5179 56.4304 33.3165 56.3665 33.0779 56.3089L32.3652 56.13C31.8133 55.9957 31.3776 55.7859 31.058 55.5004C30.7384 55.2148 30.5797 54.8303 30.5818 54.3466C30.5797 53.9503 30.6851 53.604 30.8982 53.3079C31.1134 53.0117 31.4085 52.7805 31.7835 52.6143C32.1585 52.4482 32.5847 52.3651 33.0619 52.3651C33.5477 52.3651 33.9717 52.4482 34.3339 52.6143C34.6983 52.7805 34.9817 53.0117 35.1841 53.3079C35.3865 53.604 35.4909 53.9471 35.4973 54.337H34.1709Z" fill="white" fill-opacity="0.8"/>
</svg>
